# xmcd
#
# Track frame offsets:
#	150
#	12160
#	24351
#	32918
#	47202
#	60159
#	75457
#	88901
#	101461
#	116168
#	131387
#	145589
#	166245
#	183781
#	197943
#	214772
#	226857
#	249601
#	261087
#	272954
#	282637
#	293938
#	309057
#	323698
#	338514
#
# Disc length: 4695 seconds
#
# Revision: 0
# Processed by: cddbd v1.4PL0 Copyright (c) Steve Scherf et al.
# Submitted via: dBpowerAMP V4.0
#
DISCID=59125519
DTITLE=Jodle Birge - Mine bedste gennem årene
DYEAR=2001
DGENRE=Pop
TTITLE0=Danmark er mit land
TTITLE1=Mal en rose
TTITLE2=Jeg bygger et skib af drømme
TTITLE3=Forevigt og altid
TTITLE4=Anders og Julius
TTITLE5=Ta´ en dyne med
TTITLE6=Mors øjne
TTITLE7=Temmelig millionær
TTITLE8=Jeg folder mine hænder
TTITLE9=Dejlige drømmende øjne
TTITLE10=Tusind røde roser
TTITLE11=Skuld gammel venskaw ren´ forgo!
TTITLE12=Rigtige venner
TTITLE13=Tre hvide duer
TTITLE14=To brune øjne
TTITLE15=Liljer
TTITLE16=Moder Teresa
TTITLE17=En flot buket
TTITLE18=Dans en polka
TTITLE19=En fiskertøs fra Bodensøen
TTITLE20=Hvide syrener
TTITLE21=Når matrosen drømmer
TTITLE22=Når aftenklokken lyder
TTITLE23=Her i Mexico
TTITLE24=Sku´ jeg ha´ sagt det før
EXTD=
EXTT0=
EXTT1=
EXTT2=
EXTT3=
EXTT4=
EXTT5=
EXTT6=
EXTT7=
EXTT8=
EXTT9=
EXTT10=
EXTT11=
EXTT12=
EXTT13=
EXTT14=
EXTT15=
EXTT16=
EXTT17=
EXTT18=
EXTT19=
EXTT20=
EXTT21=
EXTT22=
EXTT23=
EXTT24=
PLAYORDER=
